<svg width="17" height="17" viewBox="0 0 17 17" fill="none" xmlns="http://www.w3.org/2000/svg">
<path d="M6.7186 1.79742C7.2467 0.172089 9.54611 0.17209 10.0742 1.79742L10.7729 3.94765C11.009 4.67452 11.6864 5.16664 12.4507 5.16664H14.7115C16.4205 5.16664 17.1311 7.35351 15.7485 8.35802L13.9194 9.68693C13.3011 10.1362 13.0424 10.9324 13.2785 11.6593L13.9772 13.8095C14.5053 15.4349 12.645 16.7864 11.2624 15.7819L9.43334 14.453C8.81503 14.0038 7.97778 14.0038 7.35946 14.453L5.53037 15.7819C4.14778 16.7864 2.28752 15.4349 2.81562 13.8095L3.51428 11.6593C3.75045 10.9324 3.49172 10.1362 2.87341 9.68693L1.04432 8.35802C-0.33827 7.35351 0.372286 5.16664 2.08126 5.16664H4.34214C5.10642 5.16664 5.78377 4.67452 6.01995 3.94765L6.7186 1.79742Z" fill="white"/>
</svg>
