<svg width="17" height="17" viewBox="0 0 17 17" fill="none" xmlns="http://www.w3.org/2000/svg">
<path d="M7.02036 1.79742C7.54846 0.172089 9.84787 0.17209 10.376 1.79742L11.0746 3.94765C11.3108 4.67452 11.9881 5.16664 12.7524 5.16664H15.0133C16.7223 5.16664 17.4328 7.35351 16.0502 8.35802L14.2212 9.68693C13.6028 10.1362 13.3441 10.9324 13.5803 11.6593L14.2789 13.8095C14.807 15.4349 12.9468 16.7864 11.5642 15.7819L9.7351 14.453C9.11679 14.0038 8.27953 14.0038 7.66122 14.453L5.83213 15.7819C4.44954 16.7864 2.58928 15.4349 3.11738 13.8095L3.81603 11.6593C4.05221 10.9324 3.79348 10.1362 3.17517 9.68693L1.34608 8.35802C-0.0365119 7.35351 0.674044 5.16664 2.38302 5.16664H4.6439C5.40818 5.16664 6.08553 4.67452 6.32171 3.94765L7.02036 1.79742Z" fill="#FF8A00"/>
</svg>
